<?xml version="1.0" encoding="UTF-8" standalone="no"?>
<!DOCTYPE svg PUBLIC "-//W3C//DTD SVG 1.1//EN" "http://www.w3.org/Graphics/SVG/1.1/DTD/svg11.dtd">
<svg width="100%" height="100%" viewBox="0 0 205 50" version="1.1" xmlns="http://www.w3.org/2000/svg" xmlns:xlink="http://www.w3.org/1999/xlink" xml:space="preserve" xmlns:serif="http://www.serif.com/" style="fill-rule:evenodd;clip-rule:evenodd;stroke-linejoin:round;stroke-miterlimit:2;">
    <g transform="matrix(0.83256,0,0,0.83256,-236.426,-97.6733)">
        <g transform="matrix(0,-33.0551,-33.0551,0,384.406,154.439)">
            <path d="M1,0.323C1,0.337 0.989,0.349 0.974,0.349L0.868,0.349C0.853,0.349 0.844,0.337 0.844,0.323L0.844,0.092L0.027,0.092C0.012,0.092 0,0.08 0,0.065L0,-0.065C0,-0.08 0.012,-0.092 0.027,-0.092L0.844,-0.092L0.844,-0.323C0.844,-0.337 0.853,-0.349 0.868,-0.349L0.974,-0.349C0.989,-0.349 1,-0.337 1,-0.323L1,0.323Z" style="fill:rgb(64,53,49);fill-rule:nonzero;"/>
        </g>
        <g transform="matrix(0,-33.7815,-33.7815,0,409.923,154.804)">
            <path d="M1,-0.014C1,0.154 0.954,0.285 0.73,0.285L0.27,0.285C0.046,0.285 0,0.154 0,-0.014C0,-0.014 -0.002,-0.218 0.005,-0.259C0.008,-0.278 0.014,-0.285 0.033,-0.285L0.131,-0.285C0.145,-0.285 0.157,-0.273 0.157,-0.259L0.157,0.004C0.157,0.079 0.183,0.106 0.27,0.106L0.44,0.106L0.44,-0.244C0.44,-0.258 0.452,-0.269 0.466,-0.269L0.561,-0.269C0.576,-0.269 0.588,-0.258 0.588,-0.244L0.588,0.106L0.73,0.106C0.817,0.106 0.843,0.079 0.843,0.004L0.843,-0.259C0.843,-0.273 0.855,-0.285 0.869,-0.285L0.967,-0.285C0.986,-0.285 0.992,-0.278 0.995,-0.259C0.999,-0.231 1,-0.128 1,-0.065C1,-0.035 1,-0.014 1,-0.014Z" style="fill:rgb(64,53,49);fill-rule:nonzero;"/>
        </g>
        <g transform="matrix(0,-33.0551,-33.0551,0,437.69,154.439)">
            <path d="M1,-0.232C1,-0.218 0.989,-0.207 0.974,-0.207L0.266,-0.207C0.258,-0.207 0.254,-0.203 0.254,-0.201C0.254,-0.197 0.258,-0.193 0.265,-0.19L0.957,0.117C0.992,0.133 1,0.148 1,0.176L1,0.318C1,0.347 0.976,0.371 0.946,0.371L0.027,0.371C0.012,0.371 0,0.359 0,0.344L0,0.232C0,0.218 0.012,0.207 0.027,0.207L0.704,0.207C0.712,0.207 0.715,0.205 0.715,0.201C0.715,0.197 0.712,0.193 0.704,0.189L0.048,-0.104C0,-0.125 0,-0.153 0,-0.185L0,-0.318C0,-0.347 0.024,-0.371 0.054,-0.371L0.974,-0.371C0.989,-0.371 1,-0.36 1,-0.346L1,-0.232Z" style="fill:rgb(64,53,49);fill-rule:nonzero;"/>
        </g>
        <g transform="matrix(0,-33.7666,-33.7666,0,466.633,154.795)">
            <path d="M0.594,0.326L0.404,0.326C0.094,0.326 0,0.12 0,-0.02C0,-0.153 0.009,-0.237 0.022,-0.302C0.026,-0.318 0.037,-0.326 0.054,-0.326L0.497,-0.326C0.511,-0.326 0.523,-0.315 0.523,-0.3L0.523,-0.172C0.523,-0.158 0.511,-0.148 0.497,-0.148L0.161,-0.148C0.158,-0.108 0.157,-0.068 0.157,-0.02C0.157,0.056 0.217,0.145 0.404,0.145L0.594,0.145C0.781,0.145 0.843,0.063 0.843,-0.024C0.843,-0.148 0.838,-0.237 0.833,-0.296L0.833,-0.3C0.833,-0.321 0.842,-0.326 0.86,-0.326L0.949,-0.326C0.966,-0.326 0.972,-0.318 0.976,-0.302C0.984,-0.259 1,-0.148 1,-0.024C1,0.13 0.906,0.326 0.594,0.326Z" style="fill:rgb(64,53,49);fill-rule:nonzero;"/>
        </g>
        <g transform="matrix(0,-33.0551,-33.0551,0,506.043,154.439)">
            <path d="M1,-0.219C1,-0.205 0.986,-0.191 0.974,-0.185L0.661,-0.007L0.974,0.186C0.986,0.194 1,0.206 1,0.22L1,0.376C1,0.388 0.992,0.397 0.982,0.397C0.98,0.397 0.977,0.396 0.974,0.395L0.505,0.106L0.027,0.387C0.024,0.388 0.02,0.389 0.017,0.389C0.008,0.389 0,0.383 0,0.368L0,0.224C0,0.21 0.009,0.199 0.027,0.19L0.345,0.008L0.027,-0.186C0.011,-0.197 0,-0.206 0,-0.22L0,-0.376C0,-0.391 0.008,-0.397 0.016,-0.397C0.02,-0.397 0.023,-0.397 0.027,-0.395L0.501,-0.104L0.974,-0.381C0.977,-0.383 0.98,-0.384 0.982,-0.384C0.992,-0.384 1,-0.375 1,-0.363L1,-0.219Z" style="fill:rgb(64,53,49);fill-rule:nonzero;"/>
        </g>
        <g transform="matrix(0,-33.0551,-33.0551,0,526.476,154.439)">
            <path d="M1,0.065C1,0.08 0.989,0.092 0.974,0.092L0.027,0.092C0.012,0.092 0,0.08 0,0.065L0,-0.065C0,-0.08 0.012,-0.092 0.027,-0.092L0.974,-0.092C0.989,-0.092 1,-0.08 1,-0.065L1,0.065Z" style="fill:rgb(64,53,49);fill-rule:nonzero;"/>
        </g>
        <g transform="matrix(1.67085,0,0,1.67085,388.628,162.65)">
            <path d="M0,5.909C-0.062,5.74 -0.215,5.478 -0.354,5.286L0.054,5.094C0.207,5.286 0.354,5.525 0.423,5.686L0,5.909ZM-0.6,5.241C-0.477,5.509 -0.354,5.863 -0.308,6.093L-0.784,6.247C-0.83,6.009 -0.953,5.639 -1.068,5.371L-0.6,5.241ZM-1.168,2.006C-1.252,2.136 -1.337,2.259 -1.43,2.382L0.215,2.382C0.13,2.259 0.054,2.136 -0.023,2.006L-1.168,2.006ZM-0.822,4.287L-1.507,4.287L-1.507,4.571L-0.822,4.571L-0.822,4.287ZM-0.822,3.596L-1.507,3.596L-1.507,3.865L-0.822,3.865L-0.822,3.596ZM-0.822,2.905L-1.507,2.905L-1.507,3.166L-0.822,3.166L-0.822,2.905ZM-1.275,5.332C-1.191,5.632 -1.13,6.047 -1.114,6.308L-1.652,6.408C-1.66,6.139 -1.722,5.724 -1.79,5.417L-1.275,5.332ZM-3.012,6.208C-2.773,5.978 -2.597,5.54 -2.521,5.148L-1.898,5.263C-1.975,5.694 -2.159,6.193 -2.428,6.5L-3.012,6.208ZM-4.326,1.375L-3.78,1.375L-3.78,0.453L-4.326,0.453L-4.326,1.375ZM-3.78,3.158L-3.78,2.205L-4.326,2.205L-4.326,2.421C-4.326,2.651 -4.326,2.897 -4.334,3.158L-3.78,3.158ZM-0.115,2.905L-0.115,3.166L0.93,3.166L0.93,3.596L-0.115,3.596L-0.115,3.865L0.937,3.865L0.937,4.287L-0.115,4.287L-0.115,4.572L1.56,4.572C1.56,4.572 1.552,4.749 1.537,4.833C1.468,5.74 1.391,6.155 1.229,6.316C1.114,6.454 0.968,6.508 0.799,6.516C0.66,6.539 0.399,6.547 0.13,6.531C0.123,6.347 0.054,6.101 -0.031,5.931C0.161,5.955 0.322,5.962 0.399,5.962C0.477,5.962 0.53,5.955 0.584,5.894C0.653,5.817 0.706,5.594 0.753,5.094L-2.29,5.094L-2.29,3.212C-2.405,3.296 -2.528,3.373 -2.651,3.45C-2.713,3.32 -2.882,3.104 -3.027,2.935L-3.027,5.624C-3.027,5.986 -3.081,6.201 -3.296,6.331C-3.496,6.47 -3.78,6.485 -4.211,6.485C-4.233,6.278 -4.326,5.924 -4.426,5.717C-4.195,5.732 -3.957,5.732 -3.889,5.724C-3.804,5.724 -3.78,5.701 -3.78,5.601L-3.78,4.003L-4.372,4.003C-4.426,4.887 -4.541,5.817 -4.795,6.516C-4.933,6.393 -5.263,6.216 -5.44,6.147C-5.072,5.079 -5.048,3.542 -5.048,2.421L-5.048,-0.369L-3.027,-0.369L-3.027,2.728C-2.682,2.536 -2.397,2.29 -2.144,2.006L-2.897,2.006L-2.897,1.337L-1.69,1.337C-1.629,1.222 -1.575,1.107 -1.521,0.984L-2.697,0.984L-2.697,0.33L-2.336,0.33C-2.382,0.116 -2.481,-0.161 -2.597,-0.376L-1.921,-0.569C-1.775,-0.33 -1.652,-0.008 -1.599,0.223L-1.951,0.33L-1.291,0.33C-1.206,0.031 -1.146,-0.292 -1.106,-0.638L-0.308,-0.546C-0.354,-0.238 -0.407,0.054 -0.484,0.33L0.368,0.33L0.069,0.246C0.192,0 0.33,-0.346 0.399,-0.599L1.252,-0.392C1.106,-0.123 0.96,0.131 0.845,0.33L1.521,0.33L1.521,0.984L-0.685,0.984C-0.73,1.107 -0.776,1.222 -0.83,1.337L1.706,1.337L1.706,2.006L0.868,2.006C1.137,2.313 1.49,2.566 1.882,2.712C1.698,2.859 1.452,3.158 1.337,3.35C1.106,3.242 0.884,3.089 0.684,2.905L-0.115,2.905Z" style="fill:rgb(64,53,49);fill-rule:nonzero;"/>
        </g>
        <g transform="matrix(1.67085,0,0,1.67085,401.735,163.023)">
            <path d="M0,5.586L0.876,5.586C0.746,5.502 0.615,5.417 0.516,5.356L0.677,5.232L0,5.232L0,5.586ZM1.43,2.95C1.483,2.95 1.507,2.928 1.507,2.866L1.507,0.999L-0.038,0.999L-0.038,1.844C0.108,1.767 0.254,1.683 0.393,1.59C0.284,1.521 0.178,1.46 0.077,1.414L0.431,1.137C0.53,1.191 0.646,1.253 0.754,1.321C0.846,1.237 0.93,1.152 0.999,1.068L1.46,1.198C1.368,1.321 1.253,1.437 1.122,1.552C1.253,1.644 1.36,1.729 1.445,1.806L1.076,2.113C0.992,2.036 0.892,1.944 0.769,1.852C0.607,1.975 0.431,2.082 0.27,2.174C0.208,2.106 0.062,1.982 -0.038,1.906L-0.038,3.012C0.115,2.928 0.27,2.835 0.416,2.728C0.3,2.643 0.185,2.566 0.077,2.505L0.431,2.244C0.538,2.305 0.646,2.374 0.754,2.443C0.854,2.352 0.937,2.259 1.007,2.159L1.468,2.282C1.368,2.428 1.253,2.574 1.114,2.705C1.229,2.796 1.337,2.881 1.414,2.95L1.43,2.95ZM1.207,0.423C1.022,0.33 0.846,0.246 0.669,0.169L0.876,0.031L-0.038,0.031L-0.038,0.423L1.207,0.423ZM-1.705,0.031L-1.521,0.1C-1.644,0.208 -1.774,0.315 -1.92,0.423L-0.868,0.423L-0.868,0.031L-1.705,0.031ZM1.553,5.586L3.043,5.586L3.043,6.216L-3.91,6.216L-3.91,5.586L-0.914,5.586L-0.914,5.232L-3.081,5.232L-3.081,4.626L-0.914,4.626L-0.914,4.326L-3.411,4.326L-3.411,3.711L2.566,3.711L2.566,4.326L0,4.326L0,4.626L2.236,4.626L2.236,5.232L1.36,5.232C1.491,5.31 1.622,5.386 1.706,5.455L1.553,5.586ZM-3.211,1.176C-3.296,1.214 -3.38,1.253 -3.457,1.283C-3.58,1.137 -3.841,0.845 -3.995,0.715C-3.473,0.553 -2.912,0.299 -2.496,0.031L-3.642,0.031L-3.642,-0.63L2.836,-0.63L2.836,0.031L1.798,0.031C2.321,0.284 2.851,0.592 3.189,0.815L2.59,1.268C2.521,1.214 2.437,1.152 2.344,1.091L2.344,2.866C2.344,3.196 2.298,3.35 2.09,3.458C1.891,3.565 1.614,3.565 1.276,3.565C1.261,3.45 1.215,3.312 1.168,3.181L1.061,3.266C0.983,3.189 0.892,3.097 0.776,3.012C0.607,3.143 0.431,3.266 0.254,3.373C0.192,3.304 0.069,3.189 -0.038,3.112L-0.038,3.543L-0.868,3.543L-0.868,0.999L-2.382,0.999L-2.382,1.836C-2.243,1.767 -2.112,1.69 -1.989,1.606C-2.098,1.537 -2.204,1.475 -2.305,1.421L-1.943,1.16C-1.844,1.214 -1.736,1.268 -1.628,1.337C-1.536,1.253 -1.452,1.168 -1.383,1.076L-0.929,1.207C-1.021,1.33 -1.137,1.452 -1.268,1.567C-1.145,1.652 -1.045,1.737 -0.96,1.813L-1.329,2.113C-1.405,2.036 -1.506,1.952 -1.613,1.867C-1.774,1.982 -1.936,2.09 -2.09,2.174C-2.151,2.113 -2.281,1.998 -2.382,1.921L-2.382,3.058C-2.235,2.982 -2.09,2.889 -1.951,2.789C-2.066,2.712 -2.182,2.628 -2.289,2.566L-1.936,2.305C-1.828,2.367 -1.721,2.436 -1.613,2.505C-1.513,2.413 -1.429,2.313 -1.359,2.213L-0.906,2.343C-1.006,2.489 -1.121,2.628 -1.26,2.766C-1.129,2.866 -1.014,2.966 -0.929,3.043L-1.306,3.342C-1.383,3.258 -1.482,3.166 -1.59,3.066C-1.759,3.204 -1.936,3.327 -2.104,3.427C-2.166,3.365 -2.281,3.266 -2.382,3.189L-2.382,3.558L-3.211,3.558L-3.211,1.176Z" style="fill:rgb(64,53,49);fill-rule:nonzero;"/>
        </g>
        <g transform="matrix(1.67085,0,0,1.67085,-324.828,-302.907)">
            <path d="M442.799,281.369L442.284,281.369L442.284,281.861L442.799,281.861L442.799,281.369ZM443.414,282.346L441.7,282.346L441.7,280.886L443.414,280.886L443.414,282.346ZM446.003,284.059L446.003,279.141L445.05,279.141C445.296,279.265 445.558,279.441 445.695,279.587L445.389,279.91L445.757,279.91L445.757,280.556L444.382,280.556C444.42,280.986 444.467,281.385 444.527,281.731C444.682,281.431 444.797,281.116 444.889,280.77L445.588,280.909C445.404,281.578 445.127,282.161 444.781,282.668C444.881,282.899 444.997,283.045 445.135,283.076C445.22,283.106 445.281,282.807 445.312,282.361C445.45,282.499 445.727,282.707 445.881,282.791C445.757,283.736 445.357,284.028 444.851,283.798C444.62,283.721 444.428,283.544 444.274,283.29C444.028,283.536 443.768,283.76 443.476,283.944C443.375,283.806 443.129,283.514 442.976,283.39C443.061,283.345 443.145,283.29 443.222,283.237C442.607,283.329 442.008,283.413 441.501,283.498L441.416,282.829C441.977,282.768 442.776,282.676 443.575,282.569L443.591,282.953C443.729,282.837 443.852,282.707 443.975,282.569C443.813,282.015 443.714,281.316 443.645,280.556L441.509,280.556L441.509,279.91L443.591,279.91C443.575,279.695 443.567,279.479 443.552,279.257L444.305,279.257C444.312,279.479 444.32,279.695 444.336,279.91L445.166,279.91C445.004,279.772 444.773,279.61 444.574,279.503L444.935,279.141L441.224,279.141L441.224,284.059L446.003,284.059ZM446.91,278.319L446.91,285.196L446.003,285.196L446.003,284.873L441.224,284.873L441.224,285.196L440.355,285.196L440.355,278.319L446.91,278.319Z" style="fill:rgb(64,53,49);fill-rule:nonzero;"/>
        </g>
        <g transform="matrix(1.67085,0,0,1.67085,436.17,165.001)">
            <path d="M0,3.088C0.33,3.465 0.814,4.003 1.045,4.333L0.338,4.786C0.13,4.448 -0.338,3.887 -0.669,3.48L0,3.088ZM-0.715,-1.038C-0.63,-0.777 -0.53,-0.531 -0.407,-0.293C-0.27,-0.516 -0.139,-0.777 -0.039,-1.038L-0.715,-1.038ZM-0.546,0.921C-0.914,0.406 -1.199,-0.224 -1.406,-0.908C-1.606,-0.193 -1.898,0.421 -2.274,0.921L-0.546,0.921ZM-2.735,-0.892L-2.789,-0.8C-2.628,-0.677 -2.451,-0.538 -2.306,-0.415C-2.236,-0.562 -2.175,-0.723 -2.121,-0.892L-2.735,-0.892ZM-1.007,2.904L-1.007,5.117L-1.867,5.117L-1.867,2.904L-3.305,2.904L-3.305,2.173L0.415,2.173L0.415,2.904L-1.007,2.904ZM-2.236,3.442C-2.521,3.918 -2.943,4.494 -3.273,4.847C-3.45,4.702 -3.804,4.487 -4.004,4.379C-3.666,4.064 -3.289,3.595 -3.059,3.173L-2.236,3.442ZM-2.843,0.522C-2.751,0.406 -2.659,0.268 -2.574,0.13C-2.729,-0.016 -2.928,-0.185 -3.112,-0.339C-3.259,-0.131 -3.412,0.053 -3.581,0.207C-3.673,0.114 -3.85,-0.039 -4.004,-0.155C-4.072,0.099 -4.157,0.353 -4.233,0.575C-4.026,0.875 -3.896,1.159 -3.819,1.421C-3.52,1.252 -3.25,1.006 -2.997,0.714C-3.296,0.768 -3.55,0.814 -3.842,0.867L-3.927,0.307C-3.611,0.283 -3.281,0.245 -2.858,0.199L-2.843,0.522ZM-2.597,1.313C-2.835,1.574 -3.097,1.797 -3.381,1.982C-3.474,1.828 -3.673,1.582 -3.812,1.443C-3.742,1.713 -3.719,1.959 -3.719,2.173C-3.719,2.666 -3.812,2.996 -4.05,3.173C-4.157,3.265 -4.296,3.318 -4.457,3.349C-4.587,3.364 -4.757,3.364 -4.918,3.357C-4.926,3.15 -4.995,2.819 -5.117,2.604C-4.987,2.619 -4.887,2.619 -4.81,2.612C-4.733,2.612 -4.664,2.596 -4.61,2.55C-4.525,2.481 -4.487,2.304 -4.487,2.082C-4.487,1.713 -4.564,1.213 -4.972,0.66C-4.825,0.192 -4.687,-0.431 -4.572,-0.931L-5.133,-0.931L-5.133,5.117L-5.916,5.117L-5.916,-1.745L-4.303,-1.745L-4.18,-1.776L-3.619,-1.461C-3.703,-1.146 -3.804,-0.792 -3.911,-0.454C-3.488,-0.869 -3.166,-1.43 -2.966,-2.029L-2.298,-1.876C-2.344,-1.745 -2.39,-1.614 -2.451,-1.484L-1.875,-1.484L-1.752,-1.515L-1.299,-1.338L-1.329,-1.199L-0.945,-1.291L-0.937,-1.645L0.276,-1.645L0.422,-1.683L0.914,-1.391C0.706,-0.761 0.354,-0.085 -0.008,0.376C0.284,0.783 0.653,1.129 1.067,1.344C0.898,1.49 0.668,1.782 0.553,1.982C0.207,1.766 -0.085,1.49 -0.354,1.175L-0.354,1.644L-2.597,1.644L-2.597,1.313Z" style="fill:rgb(64,53,49);fill-rule:nonzero;"/>
        </g>
        <g transform="matrix(1.67085,0,0,1.67085,448.136,167.054)">
            <path d="M0,0.899C0.2,1.306 0.491,1.675 0.838,1.99C1.176,1.691 1.46,1.321 1.667,0.899L0,0.899ZM-2.889,-2.182L-2.889,-1.229L-2.674,-1.383C-2.489,-1.206 -2.282,-0.998 -2.113,-0.807L-2.113,-2.182L-2.889,-2.182ZM-2.889,-0.223C-2.889,0.092 -2.896,0.453 -2.912,0.822C-2.682,0.745 -2.412,0.646 -2.113,0.53L-2.113,-0.307L-2.421,-0.061C-2.521,-0.207 -2.696,-0.43 -2.889,-0.645L-2.889,-0.223ZM2.843,0.223C2.598,1.199 2.151,1.944 1.567,2.528C2.005,2.774 2.513,2.966 3.065,3.097C2.866,3.289 2.604,3.65 2.481,3.888C1.845,3.712 1.299,3.45 0.83,3.12C0.338,3.435 -0.223,3.673 -0.845,3.857C-0.93,3.627 -1.137,3.289 -1.299,3.097C-1.321,3.365 -1.398,3.55 -1.583,3.666C-1.798,3.811 -2.105,3.835 -2.551,3.835C-2.574,3.604 -2.674,3.212 -2.781,2.982C-2.543,2.989 -2.313,2.989 -2.229,2.989C-2.144,2.989 -2.113,2.958 -2.113,2.866L-2.113,1.337C-2.32,1.468 -2.513,1.598 -2.705,1.713L-2.928,1.16C-2.981,2.121 -3.111,3.15 -3.404,3.903C-3.564,3.765 -3.941,3.565 -4.134,3.488C-3.734,2.436 -3.711,0.899 -3.711,-0.215L-3.711,-3.004L-1.291,-3.004L-1.291,-0.707C-0.461,-1.122 -0.361,-1.675 -0.361,-2.174L-0.361,-2.997L2.221,-2.997L2.221,-1.314C2.221,-1.091 2.236,-1.006 2.328,-1.006L2.628,-1.006C2.728,-1.006 2.904,-1.03 3.005,-1.06C3.027,-0.837 3.043,-0.538 3.074,-0.33C2.958,-0.292 2.789,-0.284 2.636,-0.284L2.243,-0.284C1.514,-0.284 1.368,-0.591 1.368,-1.329L1.368,-2.151L0.469,-2.151L0.469,-2.143C0.469,-1.414 0.246,-0.576 -0.761,-0.061C-0.853,-0.207 -1.122,-0.484 -1.291,-0.63L-1.291,2.881C-1.291,2.943 -1.291,3.004 -1.299,3.058C-0.775,2.935 -0.292,2.751 0.131,2.512C-0.269,2.083 -0.6,1.583 -0.853,1.014L-0.477,0.899L-1.029,0.899L-1.029,0.046L2.098,0.046L2.267,0.008L2.843,0.223Z" style="fill:rgb(64,53,49);fill-rule:nonzero;"/>
        </g>
        <g transform="matrix(1.67085,0,0,1.67085,466.443,173.215)">
            <path d="M0,-6.738C0.216,-5.816 0.723,-4.902 1.392,-4.402C1.223,-4.187 0.953,-3.726 0.83,-3.426C0.723,-3.527 0.623,-3.626 0.53,-3.734C0.522,-3.649 0.522,-3.542 0.522,-3.48C0.431,-1.321 0.346,-0.484 0.123,-0.207C-0.03,0.008 -0.199,0.077 -0.43,0.116C-0.63,0.154 -0.944,0.162 -1.291,0.147C-1.313,-0.107 -1.397,-0.461 -1.529,-0.684C-1.268,-0.653 -1.029,-0.653 -0.898,-0.653C-0.791,-0.653 -0.729,-0.676 -0.66,-0.76C-0.537,-0.922 -0.461,-1.506 -0.392,-3.004L-1.36,-3.004C-1.56,-1.46 -2.09,-0.453 -3.212,0.177C-3.319,0 -3.634,-0.345 -3.818,-0.499C-2.843,-0.96 -2.397,-1.79 -2.251,-3.004L-2.958,-3.004L-2.958,-3.796C-3.058,-3.68 -3.166,-3.572 -3.272,-3.473C-3.381,-3.68 -3.673,-4.118 -3.834,-4.318C-3.212,-4.848 -2.728,-5.693 -2.466,-6.615L-1.567,-6.385C-1.852,-5.432 -2.32,-4.517 -2.912,-3.849L0.431,-3.849C-0.046,-4.425 -0.437,-5.155 -0.691,-5.862L-1.375,-5.862L-1.375,-6.738L0,-6.738ZM-3.381,-6.661C-3.588,-6.131 -3.834,-5.586 -4.118,-5.063L-4.118,0.2L-5.018,0.2L-5.018,-3.673C-5.179,-3.465 -5.34,-3.28 -5.501,-3.104C-5.586,-3.334 -5.832,-3.834 -5.993,-4.056C-5.302,-4.748 -4.625,-5.839 -4.241,-6.938L-3.381,-6.661Z" style="fill:rgb(64,53,49);fill-rule:nonzero;"/>
        </g>
        <g transform="matrix(1.67085,0,0,1.67085,-324.828,-303.406)">
            <path d="M482.218,281.492L479.46,281.492L479.46,281.976L482.218,281.976L482.218,281.492ZM482.218,283.236L482.218,282.737L479.46,282.737C479.46,282.898 479.452,283.059 479.444,283.236L482.218,283.236ZM479.844,280.078C479.759,280.286 479.651,280.486 479.536,280.685L483.109,280.685L483.109,284.481C483.109,284.934 483.024,285.18 482.71,285.319C482.41,285.464 481.972,285.472 481.35,285.472C481.312,285.219 481.188,284.835 481.073,284.589C481.465,284.611 481.911,284.611 482.041,284.611C482.172,284.604 482.218,284.565 482.218,284.458L482.218,283.997L479.329,283.997C479.198,284.573 478.952,285.134 478.476,285.526C478.354,285.334 478.008,284.95 477.815,284.827C478.476,284.251 478.529,283.428 478.529,282.714L478.529,282.091C478.237,282.398 477.931,282.683 477.577,282.929C477.438,282.721 477.154,282.391 476.978,282.222C477.754,281.707 478.368,280.931 478.822,280.078L477.154,280.078L477.154,279.218L479.214,279.218C479.337,278.903 479.437,278.596 479.521,278.288L480.466,278.503C480.39,278.741 480.305,278.98 480.221,279.218L483.97,279.218L483.97,280.078L479.844,280.078Z" style="fill:rgb(64,53,49);fill-rule:nonzero;"/>
        </g>
        <g transform="matrix(1.67085,0,0,1.67085,-324.828,-303.009)">
            <path d="M490.217,281.1L491.908,281.1L491.908,280.485L490.217,280.485L490.217,281.1ZM490.217,279.748L491.908,279.748L491.908,279.149L490.217,279.149L490.217,279.748ZM493.237,282.614C492.906,282.875 492.507,283.167 492.161,283.39C492.484,283.828 492.899,284.189 493.406,284.42C493.206,284.597 492.93,284.958 492.799,285.211C491.654,284.581 491.039,283.398 490.679,281.892L490.217,281.892L490.217,284.051L491.285,283.813C491.277,284.074 491.293,284.451 491.323,284.642C489.825,285.027 489.541,285.142 489.356,285.257C489.288,285.057 489.096,284.696 488.965,284.542C489.126,284.443 489.318,284.235 489.318,283.874L489.318,278.365L492.791,278.365L492.791,281.892L491.462,281.892C491.547,282.191 491.646,282.468 491.77,282.729C492.085,282.491 492.423,282.207 492.646,281.969L493.237,282.614ZM489.096,278.665C488.896,279.31 488.643,280.086 488.435,280.678C488.896,281.277 488.988,281.823 488.988,282.276C488.988,282.768 488.888,283.098 488.643,283.283C488.527,283.375 488.381,283.421 488.212,283.451C488.073,283.474 487.89,283.474 487.713,283.467C487.713,283.244 487.636,282.906 487.513,282.683C487.644,282.691 487.759,282.699 487.843,282.691C487.92,282.691 487.997,282.676 488.051,282.63C488.143,282.56 488.189,282.391 488.189,282.176C488.189,281.8 488.089,281.308 487.651,280.77C487.797,280.301 487.967,279.679 488.089,279.172L487.344,279.172L487.344,285.219L486.545,285.219L486.545,278.358L488.373,278.358L488.496,278.319L489.096,278.665Z" style="fill:rgb(64,53,49);fill-rule:nonzero;"/>
        </g>
        <g transform="matrix(1.67085,0,0,1.67085,511.868,173.549)">
            <path d="M0,-6.976C0.33,-5.9 1.029,-4.817 1.975,-4.241C1.768,-4.041 1.437,-3.603 1.283,-3.318C0.407,-3.987 -0.276,-5.017 -0.707,-6.031L-1.937,-6.031L-1.937,-6.976L0,-6.976ZM-0.146,-3.134C0.477,-2.289 1.183,-1.198 1.56,-0.483L0.614,0.016C0.515,-0.206 0.377,-0.46 0.215,-0.737C-3.496,-0.445 -4.019,-0.399 -4.396,-0.26C-4.456,-0.453 -4.634,-0.968 -4.771,-1.236C-4.519,-1.306 -4.311,-1.513 -4.003,-1.851C-3.681,-2.181 -2.72,-3.488 -2.113,-4.763L-1.045,-4.317C-1.637,-3.28 -2.374,-2.25 -3.12,-1.421L-0.3,-1.605C-0.546,-1.99 -0.799,-2.389 -1.037,-2.727L-0.146,-3.134ZM-2.298,-6.661C-2.858,-5.401 -3.757,-4.102 -4.587,-3.296C-4.764,-3.495 -5.171,-3.895 -5.401,-4.08C-4.587,-4.763 -3.78,-5.877 -3.319,-6.992L-2.298,-6.661Z" style="fill:rgb(64,53,49);fill-rule:nonzero;"/>
        </g>
        <g transform="matrix(1.67085,0,0,1.67085,-324.828,-302.74)">
            <path d="M506.385,282.953L508.322,282.953L508.322,281.923L506.385,281.923L506.385,282.953ZM506.385,283.736L506.385,284.29L505.493,284.29L505.493,281.139L509.22,281.139L509.22,283.736L506.385,283.736ZM509.619,280.57L505.101,280.57L505.101,279.771L509.619,279.771L509.619,280.57ZM511.325,283.913C511.325,284.436 511.233,284.712 510.902,284.873C510.588,285.035 510.096,285.058 509.412,285.05C509.381,284.781 509.243,284.328 509.112,284.059C509.543,284.089 510.05,284.082 510.195,284.074C510.334,284.074 510.388,284.036 510.388,283.905L510.388,279.226L505.024,279.226L505.024,278.357L511.325,278.357L511.325,283.913Z" style="fill:rgb(64,53,49);fill-rule:nonzero;"/>
        </g>
    </g>
    <g transform="matrix(0.722941,0,0,0.722941,-238.411,-190.176)">
        <g transform="matrix(47.2204,0,0,-56.5287,345.506,280.263)">
            <path d="M0.64,0.29C0.64,0.29 0.288,-0.237 0,-0.012L0.167,-0.155C0.184,-0.169 0.202,-0.182 0.221,-0.194C0.345,-0.27 0.494,-0.27 0.591,-0.194C0.606,-0.183 0.619,-0.17 0.631,-0.156L1,0.29L0.64,0.29Z" style="fill:url(#_Linear1);fill-rule:nonzero;"/>
        </g>
        <g transform="matrix(14.9491,-21.6159,-18.0565,-17.8959,348.931,322.285)">
            <path d="M-0.328,-0.112L1.192,-0.112C1.104,-0.037 1.031,0.061 0.978,0.174C0.939,0.259 0.912,0.351 0.898,0.446C0.057,0.445 -0.328,-0.112 -0.328,-0.112Z" style="fill:url(#_Linear2);fill-rule:nonzero;"/>
        </g>
        <g transform="matrix(45.053,0,0,-53.934,330.676,283.524)">
            <path d="M0.022,0.364C0.01,0.363 0,0.352 0,0.339C0,0.333 0.002,0.328 0.006,0.323L0.012,0.318L0.329,0.048C0.631,-0.188 1,0.364 1,0.364L0.94,0.292C0.889,0.23 0.813,0.191 0.727,0.184C0.619,0.174 0.506,0.213 0.415,0.29L0.329,0.364L0.028,0.364C0.027,0.364 0.026,0.364 0.025,0.364C0.024,0.364 0.023,0.364 0.022,0.364Z" style="fill:url(#_Linear3);fill-rule:nonzero;"/>
        </g>
        <g transform="matrix(23.7324,0,0,-28.4107,330.565,313.146)">
            <path d="M0.989,0.629L1,0.643C0.996,0.638 0.993,0.634 0.989,0.629ZM0.015,-0.562L0.007,-0.57C0.003,-0.578 0,-0.586 0,-0.596C0,-0.619 0.017,-0.638 0.039,-0.642C0.042,-0.642 0.044,-0.643 0.047,-0.643C0.05,-0.643 0.052,-0.642 0.055,-0.642L0.653,-0.642C0.653,-0.642 0.473,-0.007 0.989,0.629L0.015,-0.562Z" style="fill:url(#_Linear4);fill-rule:nonzero;"/>
        </g>
        <g transform="matrix(-47.2204,0,0,56.5287,398.19,316.102)">
            <path d="M0.591,-0.214C0.606,-0.202 0.619,-0.189 0.631,-0.176L1,0.27L0.64,0.27C0.64,0.27 0.288,-0.256 0,-0.031L0.167,-0.174C0.184,-0.188 0.202,-0.201 0.221,-0.213C0.283,-0.251 0.352,-0.27 0.417,-0.27C0.482,-0.27 0.543,-0.252 0.591,-0.214Z" style="fill:url(#_Linear5);fill-rule:nonzero;"/>
        </g>
        <g transform="matrix(-4.80821,27.466,22.9433,5.75602,390.473,270.519)">
            <path d="M1.051,-0.458C1.008,-0.35 0.989,-0.23 0.995,-0.105C1,-0.011 1.019,0.082 1.051,0.173C0.307,0.565 -0.294,0.251 -0.294,0.251L1.051,-0.458Z" style="fill:url(#_Linear6);fill-rule:nonzero;"/>
        </g>
        <g transform="matrix(-45.053,0,0,53.934,413.02,321.292)">
            <path d="M1,0.187L0.94,0.115C0.889,0.053 0.813,0.014 0.727,0.007C0.619,-0.003 0.506,0.036 0.415,0.113L0.329,0.187L0.028,0.187C0.027,0.187 0.026,0.188 0.025,0.188C0.024,0.188 0.023,0.187 0.022,0.187C0.01,0.186 0,0.175 0,0.163C0,0.156 0.002,0.151 0.006,0.146L0.012,0.142L0.329,-0.129C0.382,-0.17 0.437,-0.188 0.492,-0.188C0.749,-0.188 1,0.187 1,0.187Z" style="fill:url(#_Linear7);fill-rule:nonzero;"/>
        </g>
        <g transform="matrix(-23.7324,0,0,28.4107,413.132,282.133)">
            <path d="M0.055,-0.642L0.653,-0.642C0.653,-0.642 0.473,-0.007 0.989,0.629L0.015,-0.562L0.007,-0.571C0.003,-0.578 0,-0.586 0,-0.596C0,-0.619 0.017,-0.638 0.039,-0.642C0.042,-0.642 0.044,-0.643 0.047,-0.643C0.05,-0.643 0.052,-0.642 0.055,-0.642ZM1,0.643C0.996,0.638 0.993,0.634 0.989,0.629L1,0.643Z" style="fill:url(#_Linear8);fill-rule:nonzero;"/>
        </g>
    </g>
    <defs>
        <linearGradient id="_Linear1" x1="0" y1="0" x2="1" y2="0" gradientUnits="userSpaceOnUse" gradientTransform="matrix(1,0,0,-1,0,0.0192224)"><stop offset="0" style="stop-color:rgb(199,172,110);stop-opacity:1"/><stop offset="1" style="stop-color:rgb(137,114,64);stop-opacity:1"/></linearGradient>
        <linearGradient id="_Linear2" x1="0" y1="0" x2="1" y2="0" gradientUnits="userSpaceOnUse" gradientTransform="matrix(0.637713,-0.770274,-0.770274,-0.637713,0.15335,0.326044)"><stop offset="0" style="stop-color:rgb(199,172,110);stop-opacity:1"/><stop offset="1" style="stop-color:rgb(137,114,64);stop-opacity:1"/></linearGradient>
        <linearGradient id="_Linear3" x1="0" y1="0" x2="1" y2="0" gradientUnits="userSpaceOnUse" gradientTransform="matrix(1,0,0,-1,0,0.176826)"><stop offset="0" style="stop-color:rgb(199,172,110);stop-opacity:1"/><stop offset="1" style="stop-color:rgb(137,114,64);stop-opacity:1"/></linearGradient>
        <linearGradient id="_Linear4" x1="0" y1="0" x2="1" y2="0" gradientUnits="userSpaceOnUse" gradientTransform="matrix(1,0,0,-1,0,-1.21996e-05)"><stop offset="0" style="stop-color:rgb(199,172,110);stop-opacity:1"/><stop offset="1" style="stop-color:rgb(137,114,64);stop-opacity:1"/></linearGradient>
        <linearGradient id="_Linear5" x1="0" y1="0" x2="1" y2="0" gradientUnits="userSpaceOnUse" gradientTransform="matrix(1,0,0,-1,0,9.81094e-06)"><stop offset="0" style="stop-color:rgb(199,172,110);stop-opacity:1"/><stop offset="1" style="stop-color:rgb(137,114,64);stop-opacity:1"/></linearGradient>
        <linearGradient id="_Linear6" x1="0" y1="0" x2="1" y2="0" gradientUnits="userSpaceOnUse" gradientTransform="matrix(0.205113,-0.978738,-0.978738,-0.205113,0.336455,0.414274)"><stop offset="0" style="stop-color:rgb(199,172,110);stop-opacity:1"/><stop offset="1" style="stop-color:rgb(137,114,64);stop-opacity:1"/></linearGradient>
        <linearGradient id="_Linear7" x1="0" y1="0" x2="1" y2="0" gradientUnits="userSpaceOnUse" gradientTransform="matrix(1,0,0,-1,0,-1.63904e-06)"><stop offset="0" style="stop-color:rgb(199,172,110);stop-opacity:1"/><stop offset="1" style="stop-color:rgb(137,114,64);stop-opacity:1"/></linearGradient>
        <linearGradient id="_Linear8" x1="0" y1="0" x2="1" y2="0" gradientUnits="userSpaceOnUse" gradientTransform="matrix(1,0,0,-1,0,2.07598e-05)"><stop offset="0" style="stop-color:rgb(199,172,110);stop-opacity:1"/><stop offset="1" style="stop-color:rgb(137,114,64);stop-opacity:1"/></linearGradient>
    </defs>
</svg>
